<svg width="30" height="28" viewBox="0 0 30 28" fill="none" xmlns="http://www.w3.org/2000/svg">
<path d="M9.26562 14C7.57812 14.0521 6.19792 14.7188 5.125 16H3.03125C2.17708 16 1.45833 15.7891 0.875 15.3672C0.291667 14.9453 0 14.3281 0 13.5156C0 9.83854 0.645833 8 1.9375 8C2 8 2.22656 8.10938 2.61719 8.32812C3.00781 8.54688 3.51562 8.76823 4.14062 8.99219C4.76562 9.21615 5.38542 9.32812 6 9.32812C6.69792 9.32812 7.39062 9.20833 8.07812 8.96875C8.02604 9.35417 8 9.69792 8 10C8 11.4479 8.42188 12.7812 9.26562 14ZM26 23.9531C26 25.2031 25.6198 26.1901 24.8594 26.9141C24.099 27.638 23.0885 28 21.8281 28H8.17188C6.91146 28 5.90104 27.638 5.14062 26.9141C4.38021 26.1901 4 25.2031 4 23.9531C4 23.401 4.01823 22.862 4.05469 22.3359C4.09115 21.8099 4.16406 21.2422 4.27344 20.6328C4.38281 20.0234 4.52083 19.4583 4.6875 18.9375C4.85417 18.4167 5.07812 17.9089 5.35938 17.4141C5.64062 16.9193 5.96354 16.4974 6.32812 16.1484C6.69271 15.7995 7.13802 15.5208 7.66406 15.3125C8.1901 15.1042 8.77083 15 9.40625 15C9.51042 15 9.73438 15.112 10.0781 15.3359C10.4219 15.5599 10.8021 15.8099 11.2188 16.0859C11.6354 16.362 12.1927 16.612 12.8906 16.8359C13.5885 17.0599 14.2917 17.1719 15 17.1719C15.7083 17.1719 16.4115 17.0599 17.1094 16.8359C17.8073 16.612 18.3646 16.362 18.7812 16.0859C19.1979 15.8099 19.5781 15.5599 19.9219 15.3359C20.2656 15.112 20.4896 15 20.5938 15C21.2292 15 21.8099 15.1042 22.3359 15.3125C22.862 15.5208 23.3073 15.7995 23.6719 16.1484C24.0365 16.4974 24.3594 16.9193 24.6406 17.4141C24.9219 17.9089 25.1458 18.4167 25.3125 18.9375C25.4792 19.4583 25.6172 20.0234 25.7266 20.6328C25.8359 21.2422 25.9089 21.8099 25.9453 22.3359C25.9818 22.862 26 23.401 26 23.9531ZM10 4C10 5.10417 9.60938 6.04688 8.82812 6.82812C8.04688 7.60938 7.10417 8 6 8C4.89583 8 3.95312 7.60938 3.17188 6.82812C2.39062 6.04688 2 5.10417 2 4C2 2.89583 2.39062 1.95312 3.17188 1.17188C3.95312 0.390625 4.89583 0 6 0C7.10417 0 8.04688 0.390625 8.82812 1.17188C9.60938 1.95312 10 2.89583 10 4ZM21 10C21 11.6562 20.4141 13.0703 19.2422 14.2422C18.0703 15.4141 16.6562 16 15 16C13.3438 16 11.9297 15.4141 10.7578 14.2422C9.58594 13.0703 9 11.6562 9 10C9 8.34375 9.58594 6.92969 10.7578 5.75781C11.9297 4.58594 13.3438 4 15 4C16.6562 4 18.0703 4.58594 19.2422 5.75781C20.4141 6.92969 21 8.34375 21 10ZM30 13.5156C30 14.3281 29.7083 14.9453 29.125 15.3672C28.5417 15.7891 27.8229 16 26.9688 16H24.875C23.8021 14.7188 22.4219 14.0521 20.7344 14C21.5781 12.7812 22 11.4479 22 10C22 9.69792 21.974 9.35417 21.9219 8.96875C22.6094 9.20833 23.3021 9.32812 24 9.32812C24.6146 9.32812 25.2344 9.21615 25.8594 8.99219C26.4844 8.76823 26.9922 8.54688 27.3828 8.32812C27.7734 8.10938 28 8 28.0625 8C29.3542 8 30 9.83854 30 13.5156ZM28 4C28 5.10417 27.6094 6.04688 26.8281 6.82812C26.0469 7.60938 25.1042 8 24 8C22.8958 8 21.9531 7.60938 21.1719 6.82812C20.3906 6.04688 20 5.10417 20 4C20 2.89583 20.3906 1.95312 21.1719 1.17188C21.9531 0.390625 22.8958 0 24 0C25.1042 0 26.0469 0.390625 26.8281 1.17188C27.6094 1.95312 28 2.89583 28 4Z" fill="#403752"/>
</svg>
