<svg width="36" height="37" viewBox="0 0 36 37" fill="none" xmlns="http://www.w3.org/2000/svg">
<path d="M35.1384 0.891199C34.7498 0.493636 34.2623 0.21415 33.7295 0.0834589C33.1968 -0.0472326 32.6394 -0.0240715 32.1186 0.150397L2.0646 10.4793C1.50721 10.6613 1.01467 11.0093 0.649178 11.4796C0.283686 11.9498 0.0616383 12.5211 0.0110811 13.1212C-0.0394761 13.7214 0.0837245 14.3236 0.365123 14.8516C0.646521 15.3797 1.0735 15.81 1.59212 16.0882L14.0615 22.4379L20.2244 35.3279C20.4721 35.8324 20.8511 36.256 21.3191 36.5513C21.7871 36.8466 22.3256 37.002 22.8744 37H23.0798C23.6675 36.9554 24.2286 36.7297 24.6902 36.3522C25.1518 35.9748 25.4926 35.463 25.6682 34.8834L35.8368 4.00256C36.0184 3.46904 36.0492 2.89336 35.9255 2.34253C35.8018 1.7917 35.5289 1.28839 35.1384 0.891199ZM3.33825 13.4002L29.5713 4.38355L15.0065 19.3901L3.33825 13.4002ZM23.0182 33.6558L17.184 21.6336L31.7488 6.62712L23.0182 33.6558Z" fill="white"/>
</svg>
