<svg width="25" height="34" viewBox="0 0 25 34" fill="none" xmlns="http://www.w3.org/2000/svg">
<path d="M12.2686 -0.163147C13.6609 -0.163147 14.9963 0.389977 15.9809 1.37454C16.9654 2.35911 17.5186 3.69447 17.5186 5.08685V15.5869C17.5186 16.9792 16.9654 18.3146 15.9809 19.2992C14.9963 20.2837 13.6609 20.8369 12.2686 20.8369C10.8762 20.8369 9.54081 20.2837 8.55624 19.2992C7.57168 18.3146 7.01855 16.9792 7.01855 15.5869V5.08685C7.01855 3.69447 7.57168 2.35911 8.55624 1.37454C9.54081 0.389977 10.8762 -0.163147 12.2686 -0.163147ZM24.5186 15.5869C24.5186 21.7644 19.9511 26.8569 14.0186 27.7144V33.0869H10.5186V27.7144C4.58605 26.8569 0.0185547 21.7644 0.0185547 15.5869H3.51855C3.51855 17.9075 4.44043 20.1331 6.08137 21.774C7.72231 23.415 9.94791 24.3369 12.2686 24.3369C14.5892 24.3369 16.8148 23.415 18.4557 21.774C20.0967 20.1331 21.0186 17.9075 21.0186 15.5869H24.5186Z" fill="white"/>
</svg>
