<svg width="21" height="36" viewBox="0 0 21 36" fill="none" xmlns="http://www.w3.org/2000/svg">
<path d="M9.94571 0.098276C15.4082 -0.0334193 19.9631 4.30703 20.0918 9.76667L20.4624 24.8956C20.4647 24.9942 20.4264 25.0879 20.3585 25.1592C20.2906 25.2305 20.1988 25.2733 20.1002 25.2757L17.9604 25.3273C17.8628 25.3294 17.7684 25.2928 17.6977 25.2254C17.627 25.1581 17.5859 25.0655 17.5833 24.9679L17.2128 9.83898C17.1675 7.96017 16.3914 6.21212 15.0314 4.91621C13.6715 3.6203 11.8881 2.92932 10.0122 2.97745C8.13342 3.02275 6.38537 3.79886 5.09229 5.15584C3.79638 6.51578 3.10823 8.29623 3.15352 10.175L3.52823 25.5969L3.58849 28.0962C3.64483 30.4331 5.58972 32.2864 7.92664 32.2301C9.05741 32.2028 10.108 31.7365 10.8889 30.917C11.6698 30.0974 12.085 29.0256 12.0577 27.8949L11.6859 12.5948C11.6737 12.2093 11.5171 11.8504 11.238 11.5844L11.235 11.5816C10.9559 11.3156 10.5929 11.1793 10.2102 11.1886C9.82167 11.1979 9.46578 11.3574 9.19981 11.6365C8.93666 11.9126 8.79753 12.2786 8.80676 12.6613L9.11398 25.1634C9.11635 25.262 9.078 25.3557 9.01009 25.427C8.94218 25.4983 8.85038 25.5411 8.7518 25.5435L6.61204 25.5951C6.51444 25.5972 6.41997 25.5606 6.3493 25.4932C6.27863 25.4259 6.23751 25.3333 6.23494 25.2357L5.93352 12.7335C5.9057 11.5795 6.32904 10.4872 7.12412 9.65285C7.91921 8.81848 8.99566 8.34286 10.1438 8.31518C12.5271 8.25772 14.5078 10.1508 14.5681 12.5311L14.601 14.0186L14.9369 27.8284C14.9622 28.763 14.8016 29.6934 14.4646 30.5656C14.1276 31.4377 13.6207 32.2343 12.9735 32.9091C11.6634 34.2839 9.89516 35.0634 7.99895 35.1091C6.03599 35.1535 4.23943 34.399 2.92106 33.1427C1.60269 31.8864 0.762508 30.1283 0.715254 28.1683L0.27732 10.2444C0.216539 7.60296 1.18578 5.08756 3.01081 3.17236C4.83569 1.25136 7.30146 0.162027 9.94571 0.098276Z" fill="#2E2736"/>
</svg>
