<svg width="41" height="43" viewBox="0 0 41 43" fill="none" xmlns="http://www.w3.org/2000/svg">
<path d="M39.9164 26.7879L37.3643 24.0929C37.6892 22.1287 37.6477 20.1212 37.2418 18.1721L39.7326 15.4771C39.926 15.2617 40.0552 14.9964 40.1057 14.7114C40.1562 14.4264 40.126 14.1329 40.0184 13.8642C38.9835 11.3122 37.4574 8.98835 35.5268 7.02458C35.3379 6.83577 35.1023 6.70039 34.8441 6.63225C34.5859 6.56411 34.3142 6.56563 34.0568 6.63667L30.3001 7.59625C29.1432 6.76492 27.8883 6.0792 26.5639 5.55458L25.6451 2.04292C25.5769 1.75809 25.4262 1.49969 25.212 1.29998C24.9978 1.10027 24.7294 0.968109 24.4405 0.92C23.1682 0.68225 21.8761 0.566032 20.5818 0.572917C18.9622 0.580591 17.35 0.793253 15.7839 1.20583C15.5225 1.27153 15.2839 1.40685 15.0933 1.59739C14.9028 1.78794 14.7675 2.02658 14.7018 2.28792L13.7218 5.90167C12.626 6.38772 11.5856 6.99007 10.6184 7.69833L6.90261 6.77958C6.64171 6.71138 6.36721 6.71524 6.10833 6.79074C5.84946 6.86625 5.61592 7.01057 5.4326 7.20833C3.40272 9.3171 1.85 11.8377 0.879689 14.5992C0.785591 14.8661 0.766287 15.1536 0.823866 15.4307C0.881445 15.7078 1.01371 15.9639 1.20636 16.1713L3.77886 18.8458C3.64819 19.7047 3.58013 20.569 3.57469 21.4387C3.57469 22.0512 3.57469 22.6637 3.67677 23.2762L1.00219 26.2571C0.822199 26.4553 0.697316 26.6972 0.639998 26.9587C0.582679 27.2202 0.594928 27.4922 0.675522 27.7475C1.51452 30.447 2.90499 32.9429 4.75885 35.0771C4.94531 35.2963 5.18977 35.4586 5.46421 35.5452C5.73866 35.6319 6.03197 35.6395 6.31052 35.5671L9.82219 34.6687C11.0524 35.7021 12.4283 36.5483 13.9055 37.18L14.9264 40.8346C15.005 41.0995 15.1521 41.3391 15.3528 41.529C15.5536 41.719 15.8008 41.8527 16.0697 41.9167C17.5417 42.2495 19.0485 42.421 20.5614 42.4271C21.7673 42.4135 22.9651 42.2978 24.1547 42.08C24.4365 42.0302 24.6988 41.9025 24.9117 41.7112C25.1246 41.5199 25.2797 41.2728 25.3593 40.9979L26.3189 37.5475C28.0818 36.9172 29.7248 35.9921 31.178 34.8117L34.7714 35.6283C35.0408 35.6909 35.3223 35.6784 35.5852 35.592C35.848 35.5055 36.082 35.3486 36.2618 35.1383C38.0522 33.1516 39.4391 30.8355 40.3451 28.3192C40.4184 28.049 40.4173 27.764 40.3418 27.4944C40.2663 27.2249 40.1193 26.9807 39.9164 26.7879ZM20.7451 29.3808C19.7133 29.4001 18.688 29.214 17.7289 28.8331C16.7697 28.4523 15.896 27.8844 15.1585 27.1626C14.421 26.4408 13.8344 25.5794 13.4331 24.6287C13.0318 23.6779 12.8236 22.6568 12.8208 21.6249C12.8179 20.5929 13.0204 19.5707 13.4165 18.6178C13.8126 17.6648 14.3944 16.8003 15.1279 16.0744C15.8614 15.3485 16.732 14.7758 17.6891 14.3897C18.6461 14.0036 19.6703 13.8117 20.7022 13.8254C22.7653 13.82 24.746 14.6343 26.2086 16.0893C27.6712 17.5443 28.496 19.5207 28.5014 21.5837C28.5068 23.6468 27.6925 25.6275 26.2375 27.0901C24.7825 28.5527 22.8061 29.3775 20.7431 29.3829" fill="#403752"/>
</svg>
