<svg width="14" height="52" viewBox="0 0 14 52" fill="none" xmlns="http://www.w3.org/2000/svg">
<path d="M6.78458 51.5875C10.5316 51.5875 13.5692 48.5499 13.5692 44.8029C13.5692 41.0559 10.5316 38.0183 6.78458 38.0183C3.03756 38.0183 0 41.0559 0 44.8029C0 48.5499 3.03756 51.5875 6.78458 51.5875Z" fill="#403752"/>
<path d="M6.78458 32.5783C10.5316 32.5783 13.5692 29.5408 13.5692 25.7937C13.5692 22.0467 10.5316 19.0092 6.78458 19.0092C3.03756 19.0092 0 22.0467 0 25.7937C0 29.5408 3.03756 32.5783 6.78458 32.5783Z" fill="#403752"/>
<path d="M6.78458 13.5692C10.5316 13.5692 13.5692 10.5316 13.5692 6.78458C13.5692 3.03756 10.5316 0 6.78458 0C3.03756 0 0 3.03756 0 6.78458C0 10.5316 3.03756 13.5692 6.78458 13.5692Z" fill="#403752"/>
</svg>
